# xmcd
#
# Track frame offsets:
#	150
#	13922
#	29277
#	43231
#	56062
#	71249
#	85293
#	93949
#	106638
#	118919
#	130454
#	147174
#	162239
#
# Disc length: 2374 seconds
# Revision: 0
# Processed by: cddbd v1.5.2PL0 Copyright (c) Steve Scherf et al.
# Submitted via: dBpowerAMP V12.0
#
DISCID=b909440d
DTITLE=Junior Sisk and Ramblers Choice - The Heart Of A Song
DYEAR=2011
DGENRE=Bluegrass
TTITLE0=A Far Cry From Lester and Earl
TTITLE1=Another Man's Arms
TTITLE2=The Sound of Your Name
TTITLE3=Just As Soon As I Get Over You
TTITLE4=Sea of Regret
TTITLE5=Cold Heart
TTITLE6=Thankful For Each Day
TTITLE7=There's No Place Like Home
TTITLE8=Adriane
TTITLE9=String, Eraser and Blotter
TTITLE10=Tailor Made
TTITLE11=The Grave Robber
TTITLE12=The Devil's Old White Well
EXTD=
EXTT0=
EXTT1=
EXTT2=
EXTT3=
EXTT4=
EXTT5=
EXTT6=
EXTT7=
EXTT8=
EXTT9=
EXTT10=
EXTT11=
EXTT12=
PLAYORDER=
